<svg width="256" height="256" viewBox="0 0 256 256" fill="none" xmlns="http://www.w3.org/2000/svg">
<path fill-rule="evenodd" clip-rule="evenodd" d="M181.806 155.561C187.617 144.218 189.714 131.282 187.72 118.605C185.458 104.227 178.085 91.1481 166.955 81.7695C155.825 72.3909 141.685 67.3426 127.131 67.5517C112.578 67.7609 98.5887 73.2135 87.7325 82.9081C76.8764 92.6027 69.8822 105.889 68.0346 120.326C66.4055 133.054 68.8735 145.925 75.0079 157.096C96.3565 114.284 159.236 113.38 181.806 155.561Z" fill="#2EAC2C"/>
<mask id="path-2-inside-1_1_19" fill="white">
<path d="M154.132 213.172C156.709 221.572 165.682 226.399 173.597 222.583C191.37 214.015 206.474 200.558 217.043 183.644C230.44 162.207 235.653 136.655 231.724 111.683C227.796 86.7108 214.99 63.9941 195.659 47.7049C176.327 31.4157 151.768 22.6476 126.491 23.0108C101.214 23.3741 76.9171 32.8444 58.0617 49.6824C39.2063 66.5204 27.0586 89.5958 23.8495 114.671C20.6403 139.745 26.5853 165.136 40.5925 186.18C51.6437 202.783 67.128 215.801 85.1398 223.854C93.1608 227.441 101.992 222.359 104.327 213.888L113.481 180.677C117.71 165.332 139.358 165.021 144.027 180.238L154.132 213.172Z"/>
</mask>
<path d="M154.132 213.172C156.709 221.572 165.682 226.399 173.597 222.583C191.37 214.015 206.474 200.558 217.043 183.644C230.44 162.207 235.653 136.655 231.724 111.683C227.796 86.7108 214.99 63.9941 195.659 47.7049C176.327 31.4157 151.768 22.6476 126.491 23.0108C101.214 23.3741 76.9171 32.8444 58.0617 49.6824C39.2063 66.5204 27.0586 89.5958 23.8495 114.671C20.6403 139.745 26.5853 165.136 40.5925 186.18C51.6437 202.783 67.128 215.801 85.1398 223.854C93.1608 227.441 101.992 222.359 104.327 213.888L113.481 180.677C117.71 165.332 139.358 165.021 144.027 180.238L154.132 213.172Z" stroke="#33C730" stroke-width="47.7273" stroke-linejoin="round" mask="url(#path-2-inside-1_1_19)"/>
</svg>
